<mxfile host="app.diagrams.net" modified="2022-09-29T09:14:43.193Z" agent="5.0 (Windows NT 10.0; Win64; x64) AppleWebKit/537.36 (KHTML, like Gecko) Chrome/105.0.0.0 Safari/537.36" etag="eFovxJ0GPbwArU4Mhi9U" version="20.3.7" type="github">
  <diagram id="GtlfZJD6f9SA3Ttv0tlm" name="第 1 页">
    <mxGraphModel dx="2031" dy="1502" grid="1" gridSize="10" guides="1" tooltips="1" connect="1" arrows="1" fold="1" page="1" pageScale="1" pageWidth="291" pageHeight="413" math="0" shadow="0">
      <root>
        <mxCell id="0" />
        <mxCell id="1" parent="0" />
        <mxCell id="D7jqOdYHcrZ4cddqr7Z6-1" value="header" style="rounded=0;whiteSpace=wrap;html=1;fontFamily=Comic Sans MS;fontSize=25;" vertex="1" parent="1">
          <mxGeometry width="810" height="70" as="geometry" />
        </mxCell>
        <mxCell id="D7jqOdYHcrZ4cddqr7Z6-2" value="menu" style="rounded=0;whiteSpace=wrap;html=1;fontFamily=Comic Sans MS;fontSize=25;" vertex="1" parent="1">
          <mxGeometry y="70" width="120" height="1060" as="geometry" />
        </mxCell>
        <mxCell id="D7jqOdYHcrZ4cddqr7Z6-31" value="" style="edgeStyle=none;rounded=1;jumpSize=5;orthogonalLoop=1;jettySize=auto;html=1;dashed=1;strokeColor=#999999;strokeWidth=3;fontFamily=Comic Sans MS;fontSize=25;startArrow=oval;startFill=1;endArrow=oval;endFill=1;" edge="1" parent="1" source="D7jqOdYHcrZ4cddqr7Z6-3" target="D7jqOdYHcrZ4cddqr7Z6-2">
          <mxGeometry relative="1" as="geometry" />
        </mxCell>
        <mxCell id="D7jqOdYHcrZ4cddqr7Z6-3" value="Eyebrow" style="rounded=0;whiteSpace=wrap;html=1;fontFamily=Comic Sans MS;fontSize=25;" vertex="1" parent="1">
          <mxGeometry x="120" y="70" width="690" height="70" as="geometry" />
        </mxCell>
        <mxCell id="D7jqOdYHcrZ4cddqr7Z6-5" value="" style="rounded=0;whiteSpace=wrap;html=1;fontFamily=Comic Sans MS;fontSize=25;" vertex="1" parent="1">
          <mxGeometry x="120" y="130" width="690" height="250" as="geometry" />
        </mxCell>
        <mxCell id="D7jqOdYHcrZ4cddqr7Z6-7" style="edgeStyle=orthogonalEdgeStyle;rounded=0;orthogonalLoop=1;jettySize=auto;html=1;exitX=0.5;exitY=1;exitDx=0;exitDy=0;fontFamily=Comic Sans MS;fontSize=25;" edge="1" parent="1" source="D7jqOdYHcrZ4cddqr7Z6-5" target="D7jqOdYHcrZ4cddqr7Z6-5">
          <mxGeometry relative="1" as="geometry" />
        </mxCell>
        <mxCell id="D7jqOdYHcrZ4cddqr7Z6-8" value="" style="rounded=0;whiteSpace=wrap;html=1;fontFamily=Comic Sans MS;fontSize=25;" vertex="1" parent="1">
          <mxGeometry x="120" y="380" width="690" height="250" as="geometry" />
        </mxCell>
        <mxCell id="D7jqOdYHcrZ4cddqr7Z6-9" value="" style="rounded=0;whiteSpace=wrap;html=1;fontFamily=Comic Sans MS;fontSize=25;" vertex="1" parent="1">
          <mxGeometry x="120" y="630" width="690" height="250" as="geometry" />
        </mxCell>
        <mxCell id="D7jqOdYHcrZ4cddqr7Z6-10" value="" style="rounded=0;whiteSpace=wrap;html=1;fontFamily=Comic Sans MS;fontSize=25;" vertex="1" parent="1">
          <mxGeometry x="120" y="880" width="690" height="250" as="geometry" />
        </mxCell>
        <mxCell id="D7jqOdYHcrZ4cddqr7Z6-11" value="img" style="swimlane;fontFamily=Comic Sans MS;fontSize=25;startSize=135;" vertex="1" parent="1">
          <mxGeometry x="152" y="155" width="150" height="200" as="geometry" />
        </mxCell>
        <mxCell id="D7jqOdYHcrZ4cddqr7Z6-12" value="img" style="swimlane;fontFamily=Comic Sans MS;fontSize=25;startSize=135;" vertex="1" parent="1">
          <mxGeometry x="312" y="155" width="150" height="200" as="geometry" />
        </mxCell>
        <mxCell id="D7jqOdYHcrZ4cddqr7Z6-13" value="img" style="swimlane;fontFamily=Comic Sans MS;fontSize=25;startSize=135;" vertex="1" parent="1">
          <mxGeometry x="472" y="155" width="150" height="200" as="geometry" />
        </mxCell>
        <mxCell id="D7jqOdYHcrZ4cddqr7Z6-14" value="img" style="swimlane;fontFamily=Comic Sans MS;fontSize=25;startSize=135;" vertex="1" parent="1">
          <mxGeometry x="632" y="155" width="150" height="200" as="geometry" />
        </mxCell>
        <mxCell id="D7jqOdYHcrZ4cddqr7Z6-15" value="img" style="swimlane;fontFamily=Comic Sans MS;fontSize=25;startSize=135;" vertex="1" parent="1">
          <mxGeometry x="152" y="405" width="150" height="200" as="geometry" />
        </mxCell>
        <mxCell id="D7jqOdYHcrZ4cddqr7Z6-16" value="img" style="swimlane;fontFamily=Comic Sans MS;fontSize=25;startSize=135;" vertex="1" parent="1">
          <mxGeometry x="312" y="405" width="150" height="200" as="geometry" />
        </mxCell>
        <mxCell id="D7jqOdYHcrZ4cddqr7Z6-17" value="img" style="swimlane;fontFamily=Comic Sans MS;fontSize=25;startSize=135;" vertex="1" parent="1">
          <mxGeometry x="472" y="405" width="150" height="200" as="geometry" />
        </mxCell>
        <mxCell id="D7jqOdYHcrZ4cddqr7Z6-18" value="img" style="swimlane;fontFamily=Comic Sans MS;fontSize=25;startSize=135;" vertex="1" parent="1">
          <mxGeometry x="632" y="405" width="150" height="200" as="geometry" />
        </mxCell>
        <mxCell id="D7jqOdYHcrZ4cddqr7Z6-19" value="img" style="swimlane;fontFamily=Comic Sans MS;fontSize=25;startSize=135;" vertex="1" parent="1">
          <mxGeometry x="152" y="655" width="150" height="200" as="geometry" />
        </mxCell>
        <mxCell id="D7jqOdYHcrZ4cddqr7Z6-20" value="img" style="swimlane;fontFamily=Comic Sans MS;fontSize=25;startSize=135;" vertex="1" parent="1">
          <mxGeometry x="312" y="655" width="150" height="200" as="geometry" />
        </mxCell>
        <mxCell id="D7jqOdYHcrZ4cddqr7Z6-21" value="img" style="swimlane;fontFamily=Comic Sans MS;fontSize=25;startSize=135;" vertex="1" parent="1">
          <mxGeometry x="472" y="655" width="150" height="200" as="geometry" />
        </mxCell>
        <mxCell id="D7jqOdYHcrZ4cddqr7Z6-22" value="img" style="swimlane;fontFamily=Comic Sans MS;fontSize=25;startSize=135;" vertex="1" parent="1">
          <mxGeometry x="632" y="655" width="150" height="200" as="geometry" />
        </mxCell>
        <mxCell id="D7jqOdYHcrZ4cddqr7Z6-23" value="img" style="swimlane;fontFamily=Comic Sans MS;fontSize=25;startSize=135;" vertex="1" parent="1">
          <mxGeometry x="152" y="905" width="150" height="200" as="geometry" />
        </mxCell>
        <mxCell id="D7jqOdYHcrZ4cddqr7Z6-24" value="img" style="swimlane;fontFamily=Comic Sans MS;fontSize=25;startSize=135;" vertex="1" parent="1">
          <mxGeometry x="312" y="905" width="150" height="200" as="geometry" />
        </mxCell>
        <mxCell id="D7jqOdYHcrZ4cddqr7Z6-25" value="img" style="swimlane;fontFamily=Comic Sans MS;fontSize=25;startSize=135;" vertex="1" parent="1">
          <mxGeometry x="472" y="905" width="150" height="200" as="geometry" />
        </mxCell>
        <mxCell id="D7jqOdYHcrZ4cddqr7Z6-26" value="img" style="swimlane;fontFamily=Comic Sans MS;fontSize=25;startSize=135;" vertex="1" parent="1">
          <mxGeometry x="632" y="905" width="150" height="200" as="geometry" />
        </mxCell>
        <mxCell id="D7jqOdYHcrZ4cddqr7Z6-29" value="" style="endArrow=oval;html=1;rounded=0;fontFamily=Comic Sans MS;fontSize=25;entryX=0.861;entryY=0.001;entryDx=0;entryDy=0;entryPerimeter=0;exitX=0.861;exitY=1;exitDx=0;exitDy=0;exitPerimeter=0;startArrow=oval;startFill=1;endFill=1;strokeWidth=2;dashed=1;strokeColor=#808080;" edge="1" parent="1" source="D7jqOdYHcrZ4cddqr7Z6-2" target="D7jqOdYHcrZ4cddqr7Z6-2">
          <mxGeometry width="50" height="50" relative="1" as="geometry">
            <mxPoint x="590" y="180" as="sourcePoint" />
            <mxPoint x="640" y="130" as="targetPoint" />
          </mxGeometry>
        </mxCell>
        <mxCell id="D7jqOdYHcrZ4cddqr7Z6-30" value="" style="endArrow=oval;html=1;rounded=1;fontFamily=Comic Sans MS;fontSize=25;strokeWidth=3;jumpSize=5;startArrow=oval;startFill=1;dashed=1;endFill=1;strokeColor=#999999;" edge="1" parent="1">
          <mxGeometry width="50" height="50" relative="1" as="geometry">
            <mxPoint x="822" y="1130" as="sourcePoint" />
            <mxPoint x="822" y="3" as="targetPoint" />
          </mxGeometry>
        </mxCell>
      </root>
    </mxGraphModel>
  </diagram>
</mxfile>
